<?xml version="1.0" encoding="utf-8"?>
<!-- Generator: Adobe Illustrator 22.0.1, SVG Export Plug-In . SVG Version: 6.00 Build 0)  -->
<svg version="1.1" id="Layer_1" xmlns="http://www.w3.org/2000/svg" xmlns:xlink="http://www.w3.org/1999/xlink" x="0px" y="0px"
	 viewBox="0 0 990.6 1032.3" style="enable-background:new 0 0 990.6 1032.3;" xml:space="preserve">
<style type="text/css">
	.st0{clip-path:url(#SVGID_2_);}
	.st1{clip-path:url(#SVGID_4_);fill:#FEA501;}
	.st2{clip-path:url(#SVGID_4_);fill:#292929;}
	.st3{clip-path:url(#SVGID_6_);}
	.st4{clip-path:url(#SVGID_8_);}
	.st5{opacity:0.75;clip-path:url(#SVGID_10_);}
	.st6{clip-path:url(#SVGID_12_);}
	.st7{clip-path:url(#SVGID_10_);fill:#FEA501;}
	.st8{clip-path:url(#SVGID_10_);}
</style>
<g>
	<g>
		<defs>
			<rect id="SVGID_1_" x="1.3" width="990.6" height="1031.5"/>
		</defs>
		<clipPath id="SVGID_2_">
			<use xlink:href="#SVGID_1_"  style="overflow:visible;"/>
		</clipPath>
		<g class="st0">
			<defs>
				<rect id="SVGID_3_" x="1.3" width="990.6" height="1031.5"/>
			</defs>
			<clipPath id="SVGID_4_">
				<use xlink:href="#SVGID_3_"  style="overflow:visible;"/>
			</clipPath>
			<path class="st1" d="M2.7,773.4c0.4-2.5,0.7-4.9,1.1-7.4c7-21.9,11.8-37.8,14-47.3c0.5-2,1.5-6.5,5.1-10.5c3-3.2,7-5.1,12.3-6.7
				c15.4-4.6,30.7-1.4,46-1.2c11.5,0.1,17.2-3.4,21.1-14.3c12.5-34.9,26.5-69.2,38.7-104.1c2.6-7.5,6.1-11.9,12.6-15.3
				c52.1-26.9,103.4-55.5,161.2-69.6c18.5-4.5,36.8-10.9,54.4-18.2c28.4-11.8,40.2-32.8,39.6-63.7c-0.2-10.3-3.4-14.3-13.3-12.6
				c-12.8,2.2-14.8-4.3-14.5-15.3c0.7-24.4,0.6-48.9,0-73.4c-0.2-9.3,3-12.2,12.1-12c22.5,0.5,45.1,0,67.6,0.2
				c7.6,0.1,13.5,0.3,13.4-10.6c-0.5-53.4-0.3-106.9-0.1-160.3c0-8.4-2.7-10.9-11.1-11.1c-30.3-1-60.2,3.3-90.2,5.9
				c-47.2,4.1-94.4,9-141.5,13.8c-9.5,0.9-14.1-1.6-13.9-12.4c0.6-25.7,0.4-51.5,0.1-77.2c-0.1-9.8,2.6-13.8,13.4-12.8
				c65,6.1,130.1,11.7,195.2,17.2c5.3,0.4,12.5,3.2,15.8-3.3c10.5-20.4,30.3-30.1,47.5-42.9c13.2-9.8,48.9-10,61.8,0
				c15,11.6,32.1,21.1,43.2,36.9c6.1,8.8,13.4,10.2,22.8,9.4c64.5-5.8,129-11.4,193.4-17.4c10.9-1,15.1,2.2,14.8,13.6
				c-0.6,25.1-0.7,50.2,0,75.3c0.4,11.6-4.3,14.7-14.8,13.5c-31.9-3.4-63.8-7.3-95.8-9.6c-44.8-3.2-89.2-10.3-134.3-10.1
				c-10,0.1-13.3,3-13.2,13.2c0.4,51.5,0.6,103-0.1,154.6c-0.2,12.9,5,14.8,15.9,14.4c20.6-0.7,41.3,0.6,61.8-0.5
				c12.4-0.6,15.3,3.8,14.9,15.3c-0.8,23.8-0.7,47.7,0,71.5c0.3,10.8-2.6,15.3-13.9,14.2c-4.8-0.4-12.5-3.4-13.4,6
				c-2.3,23.3,0.7,45.2,20.1,61.2c38.3,31.5,82.4,47.7,132.2,48.6c10.5,0.2,15.5-0.5,18.6-14.2c2.6-11.6,10.2-22.4,10.1-35.8
				c-0.1-6.2,6.9-4.3,11-4.3c25.1-0.2,50.2-0.1,75.3,0c3.6,0,9.9-1,10,3.1c0.3,18.3,13.7,11.3,22.2,11.7c19.9,0.9,39.9,0.6,59.9,0.7
				v247.3c-22.5,0.5-44.9,0.9-67.4,1.4c-4.3,0.1-11.8-1.7-12.2,2.5c-1.7,17.2-14.2,11.1-22.9,11.3c-21.2,0.7-42.5-0.2-63.7,0.4
				c-9.9,0.3-13.1-2.7-13.4-12.9c-1-29.6-10-37.5-39.8-37.5c-25.1,0-50.2-0.1-75.3,0.1c-5,0-9.8-0.7-14.9,2.1
				c-38,20.9-80.3,24.7-122.1,28.3c-39,3.3-78.3,2-117.1-3.6c-43.2-6.3-84.1-20.7-123.2-39.5c-11.6-5.6-21.6-12.1-35.1-10.6
				c-21.8,2.3-39.7,21-44.1,49.9c-3.1,20.4,18.5,14,27.2,21.8c3.6,3.2,9.6,3.7,13.8,6.3c11.5,7.1,22.3,13.6,15.1,31.4
				c-5.2,12.8-6.6,27.4-7.7,41.4c-1,11.8-6.7,14.5-17.2,15.6c-34.3,3.6-68.5,10.7-103.2,3.6c-15.1-4.6-30.6-7.4-46.4-7.3
				C79.3,818.9,36.9,804.6,2.7,773.4"/>
			<path class="st2" d="M168.8,839.1v106.2c19.4-19.3,36.7-36.5,53.9-53.8c7.3-7.3,14.3-14.7,21.8-21.8c10.5-9.9,22.1-10.4,32.3-0.3
				c11.2,11.1,9,23.4-1.5,33.9c-23.4,23.7-128.7,128.1-130.1,128.1c-1.1,0-90.7-85.6-129.5-126.2C5,894.6,2,882.7,13.7,871.7
				c11-10.3,23.2-8.8,33.9,1.9c7.3,7.3,14.3,14.8,21.5,22.1c16.8,16.8,33.8,33.4,53.2,52.6V831.8
				C138.2,831.7,153.7,834.5,168.8,839.1"/>
		</g>
	</g>
</g>
<g>
	<g>
		<defs>
			<rect id="SVGID_5_" x="305.5" y="719.4" width="484.7" height="194.2"/>
		</defs>
		<clipPath id="SVGID_6_">
			<use xlink:href="#SVGID_5_"  style="overflow:visible;"/>
		</clipPath>
		<g class="st3">
			<defs>
				<rect id="SVGID_7_" x="305.5" y="719.4" width="484.7" height="194.2"/>
			</defs>
			<clipPath id="SVGID_8_">
				<use xlink:href="#SVGID_7_"  style="overflow:visible;"/>
			</clipPath>
			<g class="st4">
				<defs>
					<rect id="SVGID_9_" x="305.5" y="719.4" width="484.7" height="194.2"/>
				</defs>
				<clipPath id="SVGID_10_">
					<use xlink:href="#SVGID_9_"  style="overflow:visible;"/>
				</clipPath>
				<g class="st5">
					<g>
						<defs>
							<rect id="SVGID_11_" x="295.3" y="706.2" width="515" height="221"/>
						</defs>
						<clipPath id="SVGID_12_">
							<use xlink:href="#SVGID_11_"  style="overflow:visible;"/>
						</clipPath>
						<g class="st6">
							<defs>
								<rect id="SVGID_13_" x="295.3" y="706.2" width="515" height="221"/>
							</defs>
							<clipPath id="SVGID_14_">
								<use xlink:href="#SVGID_13_"  style="overflow:visible;"/>
							</clipPath>
							<g style="clip-path:url(#SVGID_14_);">
								
									<image style="overflow:visible;" width="515" height="221" xlink:href="57BF252B.png"  transform="matrix(1 0 0 1 295.2558 706.1802)">
								</image>
							</g>
						</g>
					</g>
				</g>
				<path class="st7" d="M321.9,847.6l11.2-15.6c7.6,5.8,14.7,8.9,21.8,8.9c7.4,0,10.7-2.8,10.7-7.3c0-5.6-8.4-8.1-17-11.5
					c-10.3-4-22.3-10.9-22.3-24.8c0-15.7,12.8-26.4,32.2-26.4c12.9,0,22.5,5.2,29.7,10.7l-11.2,15c-6-4.4-11.9-7.2-17.8-7.2
					c-6.5,0-9.6,2.5-9.6,6.7c0,5.4,7.9,7.4,16.6,10.6c10.7,3.9,22.7,10,22.7,25.4c0,15.3-12,27.2-34.6,27.2
					C343.1,859.4,330.4,854.5,321.9,847.6z M404.6,773H425l1.8,8.3h0.6c6.6-5.9,15.2-10.3,24-10.3c20.4,0,32.9,16.9,32.9,42.9
					c0,28.9-17.2,45.5-35.5,45.5c-7.3,0-14.1-3.2-20.1-8.8l0.8,13.3v24.7h-25V773z M458.7,814.1c0-15.1-4.7-22.7-14.7-22.7
					c-5.1,0-9.6,2.3-14.5,7.6v34.6c4.5,4,9.2,5.3,13.5,5.3C451.7,838.9,458.7,831.5,458.7,814.1z M500.1,747.6
					c0-7.7,6.1-13.1,14.5-13.1c8.4,0,14.5,5.4,14.5,13.1c0,7.6-6.1,13.1-14.5,13.1C506.1,760.6,500.1,755.2,500.1,747.6z M502,773
					h25v84.3h-25V773z"/>
				<path class="st8" d="M543.8,871.8c0-7,4.2-12.7,12-17v-0.7c-4.4-2.9-7.7-7.4-7.7-14.3c0-6.1,4-12,9.4-15.8v-0.7
					c-5.9-4.1-11.3-12-11.3-21.9c0-20.2,16.7-30.5,34.9-30.5c4.7,0,9.3,0.7,13.1,2h30.8v18.2h-13.6c1.6,2.5,2.9,6.7,2.9,11.1
					c0,19.4-14.8,28.3-33.2,28.3c-3.1,0-6.6-0.5-10.3-1.6c-2.1,1.8-2.9,3.3-2.9,6.3c0,4.2,3.4,6.2,12.6,6.2h13.7
					c20.7,0,32.2,6.3,32.2,21.4c0,17.5-18.3,30.3-47.2,30.3C559.4,893.2,543.8,886.8,543.8,871.8z M602.3,867.1
					c0-5.3-4.6-6.5-12.9-6.5h-8.8c-5.8,0-9.1-0.3-11.8-1.1c-3.1,2.6-4.6,5.2-4.6,8.3c0,6.4,7.4,9.7,18.7,9.7
					C594.3,877.5,602.3,873,602.3,867.1z M592.5,801.5c0-9-4.9-13.7-11.5-13.7c-6.6,0-11.5,4.7-11.5,13.7c0,9.2,4.9,14.1,11.5,14.1
					C587.6,815.5,592.5,810.7,592.5,801.5z M631.8,815.2c0-27.4,19.5-44.2,39.8-44.2c24,0,35.9,17.5,35.9,40.5c0,4.5-0.6,9-1,11
					h-50.5c2.2,12.2,10.6,17.8,21.9,17.8c6.4,0,12.1-1.9,18.2-5.5l8.3,15.1c-8.6,6-19.9,9.5-29.9,9.5
					C650.5,859.4,631.8,843.1,631.8,815.2z M686.2,805.9c0-9.3-4-16-14-16c-7.9,0-14.7,5.3-16.4,16H686.2z M726.4,826.6v-34.1h-11.5
					v-18.6l12.9-1l2.9-22.4h20.7V773h20.2v19.6h-20.2v33.8c0,9.6,4.3,13.4,10.9,13.4c2.8,0,5.8-0.8,8-1.6l3.9,18.1
					c-4.5,1.4-10.6,3.1-18.7,3.1C734.7,859.4,726.4,846.2,726.4,826.6z"/>
			</g>
		</g>
	</g>
</g>
</svg>
