<?xml version="1.0" encoding="utf-8"?>
<!-- Generator: Adobe Illustrator 22.0.1, SVG Export Plug-In . SVG Version: 6.00 Build 0)  -->
<svg version="1.1" id="Layer_1" xmlns="http://www.w3.org/2000/svg" xmlns:xlink="http://www.w3.org/1999/xlink" x="0px" y="0px"
	 viewBox="0 0 990.6 1031.5" style="enable-background:new 0 0 990.6 1031.5;" xml:space="preserve">
<style type="text/css">
	.st0{fill:#FEA501;}
	.st1{fill:#292929;}
</style>
<g id="Logo_Group">
	<path class="st0" d="M1.3,773.4c0.4-2.5,0.7-4.9,1.1-7.4c7-21.9,11.8-37.8,14-47.3c0.5-2,1.5-6.5,5.1-10.5c3-3.2,7-5.1,12.3-6.7
		c15.4-4.6,30.7-1.4,46-1.2c11.5,0.1,17.1-3.4,21.1-14.3c12.5-34.9,26.5-69.2,38.7-104.1c2.6-7.5,6.1-11.9,12.6-15.3
		c52.1-26.9,103.4-55.5,161.2-69.6c18.5-4.5,36.8-10.9,54.4-18.2c28.4-11.8,40.2-32.8,39.6-63.7c-0.2-10.3-3.4-14.3-13.3-12.6
		c-12.8,2.2-14.8-4.3-14.5-15.3c0.7-24.4,0.6-48.9,0-73.4c-0.2-9.3,3-12.2,12.1-12c22.5,0.5,45.1,0,67.6,0.2
		c7.6,0.1,13.5,0.3,13.4-10.6c-0.5-53.4-0.3-106.9-0.1-160.3c0-8.4-2.7-10.9-11.1-11.1c-30.3-1-60.2,3.3-90.2,5.9
		c-47.2,4.1-94.4,9-141.5,13.8c-9.5,0.9-14.1-1.6-13.9-12.4c0.6-25.7,0.4-51.5,0.1-77.2c-0.1-9.8,2.6-13.8,13.4-12.8
		c65,6.1,130.1,11.7,195.2,17.2c5.3,0.4,12.5,3.2,15.8-3.3c10.5-20.4,30.3-30.1,47.5-42.9c13.2-9.8,48.9-10,61.8,0
		c15,11.6,32.1,21.1,43.2,36.9c6.1,8.8,13.4,10.2,22.8,9.4c64.5-5.8,129-11.4,193.4-17.4c10.9-1,15.1,2.2,14.8,13.6
		c-0.6,25.1-0.7,50.2,0,75.3c0.4,11.6-4.3,14.7-14.8,13.5c-31.9-3.4-63.8-7.3-95.8-9.6c-44.8-3.2-89.2-10.3-134.3-10.1
		c-10,0.1-13.3,3-13.2,13.2c0.4,51.5,0.6,103-0.1,154.6c-0.2,12.9,5,14.8,15.9,14.4c20.6-0.7,41.2,0.6,61.8-0.5
		c12.4-0.6,15.3,3.8,14.9,15.3c-0.8,23.8-0.7,47.7,0,71.5c0.3,10.8-2.6,15.3-13.9,14.2c-4.8-0.4-12.5-3.4-13.4,6
		c-2.3,23.3,0.7,45.2,20.1,61.2c38.3,31.5,82.4,47.7,132.2,48.6c10.5,0.2,15.5-0.5,18.6-14.2c2.6-11.6,10.2-22.4,10.1-35.8
		c-0.1-6.2,6.9-4.3,11-4.3c25.1-0.2,50.2-0.1,75.3,0c3.6,0,9.9-1,10,3.1c0.3,18.3,13.7,11.3,22.2,11.7c19.9,0.9,39.9,0.6,59.9,0.7
		c0,82.4,0,164.9,0,247.3c-22.5,0.5-44.9,0.9-67.4,1.4c-4.3,0.1-11.8-1.7-12.2,2.5c-1.7,17.2-14.2,11.1-22.9,11.3
		c-21.2,0.7-42.5-0.2-63.7,0.4c-9.9,0.3-13.1-2.7-13.4-12.9c-1-29.6-10-37.5-39.8-37.5c-25.1,0-50.2-0.1-75.3,0.1
		c-5,0-9.8-0.7-14.9,2.1c-38,20.9-80.3,24.7-122.1,28.3c-39,3.3-78.3,2-117.1-3.6c-43.2-6.3-84.1-20.7-123.2-39.5
		C307,674,297,667.6,283.5,669c-21.8,2.3-39.7,21-44.1,49.9c-3.1,20.4,18.5,14,27.2,21.8c3.6,3.2,9.6,3.7,13.8,6.3
		c11.5,7.1,22.3,13.6,15.1,31.4c-5.2,12.8-6.6,27.4-7.7,41.4c-1,11.8-6.7,14.5-17.2,15.6c-34.3,3.6-68.5,10.7-103.2,3.6
		c-15.1-4.6-30.6-7.4-46.4-7.3C77.9,818.9,35.5,804.6,1.3,773.4z"/>
	<path class="st1" d="M167.5,839.1c0,34,0,68,0,106.2c19.4-19.3,36.7-36.5,53.9-53.8c7.3-7.3,14.3-14.7,21.8-21.8
		c10.5-9.9,22.1-10.4,32.3-0.3c11.2,11.1,9,23.4-1.5,33.9c-23.4,23.7-128.7,128.1-130.1,128.1c-1.1,0-90.7-85.6-129.5-126.2
		c-10.7-10.6-13.7-22.6-1.9-33.6c11-10.3,23.2-8.8,33.9,1.9c7.3,7.3,14.3,14.8,21.5,22.1c16.8,16.8,33.8,33.4,53.2,52.6
		c0-41.9,0-79.1,0-116.4C136.9,831.7,152.3,834.5,167.5,839.1z"/>
</g>
</svg>
